<?xml version="1.0" encoding="UTF-8" standalone="no"?><svg width="32" height="32" viewBox="0 0 32 32" fill="none" xmlns="http://www.w3.org/2000/svg">
<g clip-path="url(#clip0_226_11295)">
<path d="M20.0003 21.333H18.667C18.1147 21.333 17.667 21.7807 17.667 22.333V23.6663C17.667 24.2186 18.1147 24.6663 18.667 24.6663H20.0003C20.5526 24.6663 21.0003 24.2186 21.0003 23.6663V22.333C21.0003 21.7807 20.5526 21.333 20.0003 21.333Z" fill="#FFBEF5"/>
<path d="M10.0003 16.333H8.66699C8.11471 16.333 7.66699 16.7807 7.66699 17.333V25.333C7.66699 25.8853 8.11471 26.333 8.66699 26.333H10.0003C10.5526 26.333 11.0003 25.8853 11.0003 25.333V17.333C11.0003 16.7807 10.5526 16.333 10.0003 16.333Z" fill="#75E3EA"/>
<path d="M14.333 22.0003V20.667C14.333 20.1147 13.8853 19.667 13.333 19.667H5.33301C4.78072 19.667 4.33301 20.1147 4.33301 20.667V22.0003C4.33301 22.5526 4.78072 23.0003 5.33301 23.0003H13.333C13.8853 23.0003 14.333 22.5526 14.333 22.0003Z" fill="#75E3EA"/>
<path d="M25.0003 18H23.667C23.1147 18 22.667 18.4477 22.667 19V20.3333C22.667 20.8856 23.1147 21.3333 23.667 21.3333H25.0003C25.5526 21.3333 26.0003 20.8856 26.0003 20.3333V19C26.0003 18.4477 25.5526 18 25.0003 18Z" fill="#FFBEF5"/>
<path d="M19.3337 11.333V11.1228C19.3337 9.6229 19.3337 8.8729 18.9101 8.3304C18.4865 7.78788 17.7589 7.60599 16.3038 7.24221L15.6969 7.09047C14.2417 6.72669 13.5142 6.5448 13.0906 6.00228C12.667 5.45976 12.667 4.7098 12.667 3.2099V1.33301" stroke="#33363F" stroke-width="2" stroke-linecap="round"/>
<path d="M1 21.333C1 17.0683 1 14.936 2.03323 13.467C2.29924 13.0889 2.60953 12.7504 2.95619 12.4602C4.30273 11.333 6.2574 11.333 10.1667 11.333H21.8333C25.7426 11.333 27.6973 11.333 29.0438 12.4602C29.3905 12.7504 29.7008 13.0889 29.9668 13.467C31 14.936 31 17.0683 31 21.333C31 25.5977 31 27.73 29.9668 29.199C29.7008 29.5772 29.3905 29.9157 29.0438 30.2058C27.6973 31.333 25.7426 31.333 21.8333 31.333H10.1667C6.2574 31.333 4.30273 31.333 2.95619 30.2058C2.60953 29.9157 2.29924 29.5772 2.03323 29.199C1 27.73 1 25.5977 1 21.333Z" stroke="#33363F" stroke-width="2"/>
</g>
<defs>
<clipPath id="clip0_226_11295">
<rect width="32" height="32" fill="white"/>
</clipPath>
</defs>
</svg>
