<?xml version="1.0" encoding="UTF-8" standalone="no"?><svg width="32" height="32" viewBox="0 0 32 32" fill="none" xmlns="http://www.w3.org/2000/svg">
<path d="M17.607 1.82617C19.0949 1.82617 20.3081 1.82421 21.2625 1.94187C22.2446 2.06296 23.0961 2.3254 23.7759 2.94861C24.4555 3.57184 24.7418 4.35255 24.8738 5.25306C25.0021 6.12818 25 7.24062 25 8.60484V23.3398C25 24.7041 25.0021 25.8165 24.8738 26.6916C24.7418 27.5921 24.4555 28.3729 23.7759 28.9961C23.0961 29.6193 22.2446 29.8817 21.2625 30.0028C20.3081 30.1204 19.0949 30.1185 17.607 30.1185H14.3931C12.9052 30.1185 11.6919 30.1204 10.7375 30.0028C9.75528 29.8817 8.90391 29.6193 8.22417 28.9961C7.54444 28.3728 7.25824 27.5922 7.12619 26.6916C6.99788 25.8165 7 24.7041 7 23.3398V8.60484C7 7.24062 6.99788 6.12819 7.12619 5.25306C7.25824 4.35248 7.54444 3.57186 8.22417 2.94861C8.90391 2.32537 9.75528 2.06295 10.7375 1.94187C11.6919 1.82423 12.9052 1.82617 14.3931 1.82617H17.607Z" stroke="#33363F" stroke-width="2"/>
<path d="M7.66699 21.5996H24.3337" stroke="#75E3EA" stroke-width="2"/>
</svg>
