<?xml version="1.0" encoding="UTF-8" standalone="no"?><svg width="32" height="32" viewBox="0 0 32 32" fill="none" xmlns="http://www.w3.org/2000/svg">
<path d="M1.88281 16.4851V8.3396C1.88281 7.79647 1.88281 7.52496 1.98539 7.31754C2.07563 7.13504 2.21961 6.98678 2.3967 6.89378C2.59803 6.78809 2.86159 6.78809 3.38869 6.78809H6.5887" stroke="#33363F" stroke-width="2"/>
<path d="M30.118 16.4851V8.3396C30.118 7.79647 30.118 7.52496 30.0154 7.31754C29.9251 7.13504 29.7812 6.98678 29.6041 6.89378C29.4028 6.78809 29.1393 6.78809 28.6121 6.78809H25.4121" stroke="#33363F" stroke-width="2"/>
<path d="M1.88281 0.969727L4.70634 2.90912L1.88281 4.84851V0.969727Z" fill="#33363F"/>
<path d="M15.0589 0.969727L12.2354 2.90912L15.0589 4.84851V0.969727Z" fill="#33363F"/>
<path d="M20.7061 21.2683C20.7061 20.7253 20.7061 20.4537 20.8086 20.2463C20.8989 20.0639 21.0428 19.9155 21.2199 19.8225C21.4213 19.7168 21.6848 19.7168 22.2119 19.7168H23.8433L25.4119 21.333H28.6119C29.1391 21.333 29.4026 21.333 29.6039 21.4387C29.7811 21.5316 29.925 21.6799 30.0152 21.8624C30.1178 22.0699 30.1178 22.3414 30.1178 22.8845V27.8623C30.1178 28.4054 30.1178 28.6769 30.0152 28.8843C29.925 29.0668 29.7811 29.2151 29.6039 29.3081C29.4026 29.4138 29.1391 29.4138 28.6119 29.4138H22.2119C21.6848 29.4138 21.4213 29.4138 21.2199 29.3081C21.0428 29.2151 20.8989 29.0668 20.8086 28.8843C20.7061 28.6769 20.7061 28.4054 20.7061 27.8623V21.2683Z" fill="#F0F8FF" stroke="#33363F" stroke-width="2" stroke-linejoin="round"/>
<path d="M1.88281 21.2683C1.88281 20.7253 1.88281 20.4537 1.98539 20.2463C2.07563 20.0639 2.21961 19.9155 2.3967 19.8225C2.59803 19.7168 2.86159 19.7168 3.38869 19.7168H5.02006L6.5887 21.333H9.7887C10.3158 21.333 10.5794 21.333 10.7807 21.4387C10.9578 21.5316 11.1017 21.6799 11.192 21.8624C11.2946 22.0699 11.2946 22.3414 11.2946 22.8845V27.8623C11.2946 28.4054 11.2946 28.6769 11.192 28.8843C11.1017 29.0668 10.9578 29.2151 10.7807 29.3081C10.5794 29.4138 10.3158 29.4138 9.7887 29.4138H3.38869C2.86159 29.4138 2.59803 29.4138 2.3967 29.3081C2.21961 29.2151 2.07563 29.0668 1.98539 28.8843C1.88281 28.6769 1.88281 28.4054 1.88281 27.8623V21.2683Z" fill="#75E3EA" stroke="#33363F" stroke-width="2" stroke-linejoin="round"/>
<path d="M11.2939 3.49097C11.2939 2.94789 11.2939 2.67635 11.3965 2.46892C11.4868 2.28646 11.6307 2.13812 11.8078 2.04514C12.0091 1.93945 12.2727 1.93945 12.7998 1.93945H14.4312L15.9998 3.55562H19.1998C19.727 3.55562 19.9905 3.55562 20.1918 3.66131C20.369 3.75427 20.5129 3.90261 20.6031 4.08508C20.7057 4.29251 20.7057 4.56404 20.7057 5.10713V10.0849C20.7057 10.628 20.7057 10.8996 20.6031 11.107C20.5129 11.2895 20.369 11.4377 20.1918 11.5307C19.9905 11.6364 19.727 11.6364 19.1998 11.6364H12.7998C12.2727 11.6364 12.0091 11.6364 11.8078 11.5307C11.6307 11.4377 11.4868 11.2895 11.3965 11.107C11.2939 10.8996 11.2939 10.628 11.2939 10.0849V3.49097Z" fill="#FFBEF5" stroke="#33363F" stroke-width="2" stroke-linejoin="round"/>
</svg>
