<?xml version="1.0" encoding="UTF-8" standalone="no"?><svg width="32" height="32" viewBox="0 0 32 32" fill="none" xmlns="http://www.w3.org/2000/svg">
<path d="M16.0008 18.3337C17.2136 18.3337 18.1968 17.289 18.1968 16.0003C18.1968 14.7117 17.2136 13.667 16.0008 13.667C14.7879 13.667 13.8047 14.7117 13.8047 16.0003C13.8047 17.289 14.7879 18.3337 16.0008 18.3337Z" stroke="#75E3EA" stroke-width="2"/>
<path d="M25.9529 15.3755C26.0699 15.6461 26.1284 15.7815 26.1284 16C26.1284 16.2185 26.0699 16.3539 25.9529 16.6245C25.1751 18.4252 22.4138 23.5 16.0002 23.5C9.58654 23.5 6.82531 18.4252 6.04743 16.6245C5.93053 16.3539 5.87207 16.2185 5.87207 16C5.87207 15.7815 5.93053 15.6461 6.04743 15.3755C6.82531 13.5748 9.58654 8.5 16.0002 8.5C22.4138 8.5 25.1751 13.5748 25.9529 15.3755Z" stroke="#FFBEF5" stroke-width="2"/>
<path d="M23.8436 2.66699H26.5416C28.2276 2.66699 29.0706 2.66699 29.5943 3.22349C30.1181 3.77999 30.1181 4.67566 30.1181 6.467V9.3337M23.8436 29.3337H26.5416C28.2276 29.3337 29.0706 29.3337 29.5943 28.7772C30.1181 28.2207 30.1181 27.325 30.1181 25.5337V22.667M8.15735 2.66699H5.45928C3.77332 2.66699 2.93033 2.66699 2.40658 3.22349C1.88281 3.77999 1.88281 4.67566 1.88281 6.467V9.3337M8.15735 29.3337H5.45928C3.77332 29.3337 2.93033 29.3337 2.40658 28.7772C1.88281 28.2207 1.88281 27.325 1.88281 25.5337V22.667" stroke="#222222" stroke-width="2" stroke-linecap="round"/>
</svg>
