<?xml version="1.0" encoding="UTF-8" standalone="no"?><svg width="32" height="32" viewBox="0 0 32 32" fill="none" xmlns="http://www.w3.org/2000/svg">
<path d="M12.0003 22.6667H7.4211C5.77341 22.6667 4.94957 22.6667 4.39573 23.1227C4.29625 23.2046 4.20492 23.2959 4.12301 23.3954C3.66699 23.9493 3.66699 24.7731 3.66699 26.4208C3.66699 28.3917 3.66699 29.3771 4.2387 29.9604C4.34025 30.064 4.45279 30.1563 4.5743 30.2355C5.25836 30.6818 6.22468 30.4885 8.1573 30.102L8.7848 29.9765C10.3241 29.6686 11.0937 29.5147 11.547 28.9617C12.0003 28.4088 12.0003 27.6239 12.0003 26.0541V9.27916C12.0003 7.70946 12.0003 6.92456 12.4536 6.37166C12.907 5.81866 13.6766 5.66473 15.2159 5.35688L23.8825 3.62355C26.0961 3.18082 27.2029 2.95946 27.935 3.55958C28.667 4.15969 28.667 5.28842 28.667 7.54586V11M28.667 11V19.3334M28.667 11L12.0003 14.3334M28.667 19.3334V22.7208C28.667 24.2906 28.667 25.0754 28.2137 25.6284C27.7604 26.1814 26.9907 26.3353 25.4515 26.6431L24.824 26.7686C22.8913 27.1552 21.925 27.3484 21.241 26.9022C21.1195 26.8229 21.0069 26.7307 20.9054 26.6271C20.3337 26.0438 20.3337 25.0584 20.3337 23.0874C20.3337 21.4398 20.3337 20.6159 20.7897 20.0621C20.8716 19.9626 20.9629 19.8713 21.0624 19.7894C21.6162 19.3334 22.4401 19.3334 24.0877 19.3334H28.667Z" stroke="#222222" stroke-width="2"/>
</svg>
