<?xml version="1.0" encoding="UTF-8" standalone="no"?><svg width="32" height="32" viewBox="0 0 32 32" fill="none" xmlns="http://www.w3.org/2000/svg">
<path d="M16.0002 2.51051V3.45169C17.0589 3.45169 18.1032 3.69522 19.0527 4.16345L19.4689 3.31934L19.8852 2.47522C18.6768 1.87929 17.3476 1.56934 16.0002 1.56934V2.51051ZM19.4689 3.31934L19.0527 4.16345C20.0024 4.63179 20.8317 5.31185 21.476 6.15146L22.2226 5.57853L22.9694 5.00558C22.1489 3.93646 21.0934 3.07102 19.8852 2.47522L19.4689 3.31934ZM22.2226 5.57853L21.476 6.15146C22.1202 6.99118 22.5627 7.96822 22.7693 9.00662L23.6924 8.82299L24.6154 8.63937C24.3526 7.31815 23.7897 6.07466 22.9694 5.00558L22.2226 5.57853ZM25.3803 10.3533V11.2945H25.8826V10.3533V9.41217H25.3803V10.3533ZM25.8826 10.3533V11.2945C27.7019 11.2945 29.1767 12.7693 29.1767 14.5886H30.1179H31.0591C31.0591 11.7297 28.7415 9.41217 25.8826 9.41217V10.3533ZM30.1179 14.5886H29.1767V17.0988H30.1179L31.0591 17.0989V14.5886H30.1179ZM30.1179 17.0988H29.1767C29.1766 18.9181 27.7017 20.3929 25.8826 20.3929V21.3341V22.2752C28.7414 22.2752 31.0589 19.9575 31.0591 17.0989L30.1179 17.0988ZM25.8826 21.3341V20.3929H24.1574V21.3341V22.2752H25.8826V21.3341ZM22.2751 19.4517H23.2162V14.5188H22.2751H21.3339V19.4517H22.2751ZM22.2751 14.5188H23.2162C23.216 13.4794 22.3732 12.6367 21.3342 12.6365L21.3339 13.5776V14.5188H22.2751ZM21.3339 13.5776L21.3342 12.6365H10.6666V13.5776V14.5188H21.3339V13.5776ZM10.6666 13.5776V12.6365C9.62752 12.6367 8.78442 13.4792 8.78423 14.5186L9.72541 14.5188H10.6666V13.5776ZM9.72541 14.5188L8.78423 14.5186V19.4517H9.72541H10.6666V14.5188H9.72541ZM7.84305 21.3341V20.3929H6.11788V21.3341V22.2752H7.84305V21.3341ZM6.11788 21.3341V20.3929C4.29875 20.3929 2.82389 18.918 2.82376 17.0987L1.88258 17.0988H0.941406C0.941613 19.9574 3.25903 22.2752 6.11788 22.2752V21.3341ZM1.88258 17.0988L2.82376 17.0987V14.5886H1.88258H0.941406V17.0988H1.88258ZM1.88258 14.5886H2.82376C2.82376 12.7693 4.29858 11.2945 6.11788 11.2945V10.3533V9.41217C3.25899 9.41217 0.941406 11.7297 0.941406 14.5886H1.88258ZM6.11788 10.3533V11.2945H6.62018V10.3533V9.41217H6.11788V10.3533ZM8.30809 8.82299L9.23119 9.00662C9.43778 7.96822 9.88023 6.99118 10.5245 6.15146L9.77783 5.57853L9.0311 5.00556C8.21077 6.07464 7.64785 7.31815 7.38508 8.63937L8.30809 8.82299ZM9.77783 5.57853L10.5245 6.15146C11.1688 5.31185 11.9981 4.63179 12.9477 4.16345L12.5315 3.31934L12.1152 2.47522C10.9071 3.07102 9.85152 3.93644 9.0311 5.00556L9.77783 5.57853ZM12.5315 3.31934L12.9477 4.16345C13.8973 3.69522 14.9416 3.45169 16.0002 3.45169V2.51051V1.56934C14.6528 1.56934 13.3236 1.87929 12.1152 2.47522L12.5315 3.31934ZM6.62018 10.3533V11.2945C6.88014 11.2945 7.12343 11.2951 7.32381 11.2813C7.52578 11.2673 7.77764 11.2347 8.02837 11.1175L7.62978 10.2648L7.23129 9.41217C7.29256 9.38356 7.31308 9.39513 7.1943 9.40332C7.07392 9.4116 6.90705 9.41217 6.62018 9.41217V10.3533ZM8.30809 8.82299L7.38508 8.63937C7.31788 8.97697 7.27524 9.1893 7.2359 9.34045C7.1927 9.50648 7.18075 9.48097 7.23129 9.41217L7.98988 9.96935L8.74837 10.5265C8.92268 10.2893 9.00503 10.0165 9.05764 9.81443C9.11411 9.59749 9.1687 9.32097 9.23119 9.00662L8.30809 8.82299ZM7.62978 10.2648L8.02837 11.1175C8.33472 10.9742 8.54818 10.7991 8.74837 10.5265L7.98988 9.96935L7.23129 9.41217C7.21915 9.42883 7.21425 9.43391 7.21548 9.43259C7.21623 9.43184 7.2183 9.42958 7.22169 9.42629C7.22517 9.42299 7.22931 9.41932 7.23402 9.41546C7.23872 9.4116 7.24315 9.40822 7.2471 9.40549C7.25096 9.40276 7.25359 9.40116 7.25444 9.40059C7.25595 9.39975 7.25002 9.40342 7.23129 9.41217L7.62978 10.2648ZM9.72541 19.4517H8.78423C8.78423 19.922 8.78225 20.18 8.75816 20.359C8.73774 20.5109 8.71807 20.459 8.78423 20.3929L9.44974 21.0584L10.1152 21.7239C10.4571 21.3821 10.5753 20.9705 10.6238 20.6098C10.6686 20.2763 10.6666 19.8687 10.6666 19.4517H9.72541ZM7.84305 21.3341V22.2752C8.26009 22.2752 8.66762 22.2772 9.00117 22.2324C9.36183 22.1838 9.77341 22.0657 10.1152 21.7239L9.44974 21.0584L8.78423 20.3929C8.85039 20.3267 8.90235 20.3464 8.75035 20.3668C8.57134 20.3909 8.31336 20.3929 7.84305 20.3929V21.3341ZM24.1574 21.3341V20.3929C23.6871 20.3929 23.4291 20.3909 23.2501 20.3668C23.0981 20.3464 23.1501 20.3267 23.2162 20.3929L22.5507 21.0584L21.8852 21.7239C22.2271 22.0657 22.6386 22.1838 22.9993 22.2324C23.3328 22.2772 23.7404 22.2752 24.1574 22.2752V21.3341ZM22.2751 19.4517H21.3339C21.3339 19.8687 21.3319 20.2763 21.3767 20.6098C21.4252 20.9705 21.5434 21.3821 21.8852 21.7239L22.5507 21.0584L23.2162 20.3929C23.2824 20.459 23.2627 20.5109 23.2423 20.359C23.2182 20.18 23.2162 19.922 23.2162 19.4517H22.2751ZM23.6924 8.82299L22.7693 9.00662C22.8318 9.32097 22.8863 9.59749 22.9428 9.81443C22.9954 10.0165 23.0778 10.2893 23.2521 10.5265L24.0106 9.96935L24.7692 9.41217C24.8197 9.48097 24.8078 9.50648 24.7646 9.34045C24.7252 9.1893 24.6826 8.97697 24.6154 8.63937L23.6924 8.82299ZM25.3803 10.3533V9.41217C25.0934 9.41217 24.9265 9.4116 24.8062 9.40332C24.6874 9.39513 24.7079 9.38356 24.7692 9.41217L24.3707 10.2648L23.9721 11.1175C24.2228 11.2347 24.4747 11.2673 24.6767 11.2813C24.877 11.2951 25.1203 11.2945 25.3803 11.2945V10.3533ZM24.0106 9.96935L23.2521 10.5265C23.4523 10.7991 23.6657 10.9742 23.9721 11.1175L24.3707 10.2648L24.7692 9.41217C24.7504 9.40342 24.7445 9.39975 24.746 9.40059C24.7469 9.40116 24.7495 9.40276 24.7534 9.40549C24.7573 9.40822 24.7617 9.4116 24.7664 9.41546C24.7711 9.41932 24.7753 9.42299 24.7788 9.42629C24.7822 9.42958 24.7842 9.43184 24.785 9.43259C24.7862 9.43391 24.7813 9.42883 24.7692 9.41217L24.0106 9.96935Z" fill="#33363F"/>
<path d="M20.3922 13.4902H11.6079C10.5683 13.4902 9.72559 14.333 9.72559 15.3726V27.2942C9.72559 28.3338 10.5683 29.1765 11.6079 29.1765H20.3922C21.4318 29.1765 22.2746 28.3338 22.2746 27.2942V15.3726C22.2746 14.333 21.4318 13.4902 20.3922 13.4902Z" stroke="#33363F" stroke-width="2"/>
<path d="M15.2158 21.334H16.7845" stroke="#FFBEF5" stroke-width="2" stroke-linecap="round"/>
</svg>
