<?xml version="1.0" encoding="UTF-8" standalone="no"?><svg width="143" height="120" viewBox="0 0 143 120" fill="none" xmlns="http://www.w3.org/2000/svg">
<path d="M31 56C44.2548 56 55 45.7025 55 33C55 20.2975 44.2548 10 31 10C17.7452 10 7 20.2975 7 33C7 45.7025 17.7452 56 31 56Z" fill="#FFBEF5"/>
<path d="M112 56C125.255 56 136 45.7025 136 33C136 20.2975 125.255 10 112 10C98.7452 10 88 20.2975 88 33C88 45.7025 98.7452 56 112 56Z" fill="#AFDCEB"/>
<path d="M71.5 63C88.897 63 103 49.5685 103 33C103 16.4315 88.897 3 71.5 3C54.103 3 40 16.4315 40 33C40 49.5685 54.103 63 71.5 63Z" fill="#75E3EA"/>
<path d="M111.697 63C136.086 63.0003 141.962 92.8036 142.987 99.6224C143.099 100.369 142.494 101 141.713 101H116.169C112.997 89.5263 106.863 76.5105 95 69.0762C99.2657 65.4378 104.724 63 111.697 63Z" fill="#AFDCEB"/>
<path d="M31.3041 63C38.2767 63 43.7344 65.4381 48 69.0762C36.1377 76.5106 30.0045 89.5265 26.833 101H1.28877C0.507898 101 -0.0985222 100.369 0.013333 99.6224C1.03852 92.8036 6.91481 63.0003 31.3041 63Z" fill="#FFBEF5"/>
<path d="M71.5001 70C108.013 70 111.639 107.319 111.999 114.73C112.034 115.439 111.43 116 110.677 116H32.3224C31.5709 116 30.9669 115.439 31.0014 114.73C31.3613 107.319 34.987 70 71.5001 70Z" fill="#75E3EA"/>
</svg>
